<?xml version="1.0" encoding="UTF-8" standalone="no"?>
<!DOCTYPE svg PUBLIC "-//W3C//DTD SVG 1.1//EN" "http://www.w3.org/Graphics/SVG/1.1/DTD/svg11.dtd">
<!-- Created with Vectornator (http://vectornator.io/) -->
<svg height="100%" stroke-miterlimit="10" style="fill-rule:nonzero;clip-rule:evenodd;stroke-linecap:round;stroke-linejoin:round;" version="1.1" viewBox="231.743 1227.6 438.4 89.2643" width="100%" xml:space="preserve" xmlns="http://www.w3.org/2000/svg" xmlns:vectornator="http://vectornator.io" xmlns:xlink="http://www.w3.org/1999/xlink">
<defs/>
<clipPath id="ArtboardFrame">
<rect height="89.2643" width="438.4" x="231.743" y="1227.6"/>
</clipPath>
<g clip-path="url(#ArtboardFrame)" id="Layer" vectornator:layerName="Layer">
<g opacity="1" vectornator:layerName="Group 7">
<path d="M231.743 1315.82L238.911 1315.82L238.911 1228.4L231.743 1228.4L231.743 1315.82Z" fill="#ffffff" fill-rule="nonzero" opacity="1" stroke="none"/>
<path d="M283.455 1302L252.095 1228.4L244.799 1228.4L244.799 1315.82L246.335 1315.82L246.335 1232.11L282.175 1315.82C283.199 1315.82 284.223 1315.82 285.119 1315.82L285.119 1228.4L283.455 1228.4L283.455 1302Z" fill="#ffffff" fill-rule="nonzero" opacity="1" stroke="none"/>
<path d="M348.351 1271.41L322.623 1271.41L322.623 1228.4L315.455 1228.4L315.455 1315.82L322.623 1315.82L322.623 1273.07L348.351 1273.07L348.351 1315.82L355.519 1315.82L355.519 1228.4L348.351 1228.4L348.351 1271.41Z" fill="#ffffff" fill-rule="nonzero" opacity="1" stroke="none"/>
<path d="M360.383 1315.82L367.551 1315.82L367.551 1228.4L360.383 1228.4L360.383 1315.82Z" fill="#ffffff" fill-rule="nonzero" opacity="1" stroke="none"/>
<path d="M382.271 1240.56C382.655 1235.31 386.623 1229.68 395.327 1228.91C403.903 1229.04 410.047 1231.86 413.119 1240.69L414.527 1240.05C410.431 1227.38 396.095 1225.71 385.727 1229.17C379.071 1231.34 375.231 1235.95 374.207 1242.22C372.927 1255.41 389.823 1270.9 398.527 1280.88C431.807 1317.62 378.815 1327.47 374.335 1296.24L372.415 1297.14C374.335 1305.46 377.023 1309.42 383.039 1313.9C393.663 1319.28 403.263 1316.85 409.151 1310.45C424.127 1292.4 408.511 1278.45 397.887 1266.54C390.847 1258.86 381.631 1249.14 382.271 1240.56Z" fill="#ffffff" fill-rule="nonzero" opacity="1" stroke="none"/>
<path d="M489.919 1258.35L476.095 1312.5L453.695 1228.4L446.015 1228.4L469.183 1315.82L476.991 1315.82L490.815 1261.68L505.279 1315.82L512.959 1315.82L535.487 1228.53L533.695 1228.53L512.063 1312.5L489.663 1228.4L481.983 1228.4L489.919 1258.35Z" fill="#ffffff" fill-rule="nonzero" opacity="1" stroke="none"/>
<path d="M548.799 1228.4L549.823 1232.5L528.447 1315.95L530.111 1315.95L538.559 1283.06L561.983 1283.06L569.919 1315.82L577.215 1315.82L556.095 1228.4L548.799 1228.4ZM538.943 1281.39L550.591 1235.7L561.599 1281.39L538.943 1281.39Z" fill="#ffffff" fill-rule="nonzero" opacity="1" stroke="none"/>
<path d="M630.207 1228.53L628.543 1228.53L589.247 1279.09L589.247 1228.91L582.079 1228.91L582.079 1316.34L589.247 1316.34L589.247 1281.26L596.415 1272.05L625.087 1315.82L632.383 1315.82L600.383 1266.93L630.207 1228.53Z" fill="#ffffff" fill-rule="nonzero" opacity="1" stroke="none"/>
<path d="M637.247 1228.4L637.247 1315.82L644.415 1315.82L670.143 1315.82L670.143 1314.16L644.415 1314.16L644.415 1273.07L664.639 1273.07L664.639 1271.41L644.415 1271.41L644.415 1230.06L670.143 1230.06L670.143 1228.4L644.415 1228.4L637.247 1228.4Z" fill="#ffffff" fill-rule="nonzero" opacity="1" stroke="none"/>
</g>
</g>
</svg>
