<?xml version="1.0" encoding="UTF-8" standalone="no"?>
<!DOCTYPE svg PUBLIC "-//W3C//DTD SVG 1.1//EN" "http://www.w3.org/Graphics/SVG/1.1/DTD/svg11.dtd">
<!-- Created with Vectornator (http://vectornator.io/) -->
<svg height="100%" stroke-miterlimit="10" style="fill-rule:nonzero;clip-rule:evenodd;stroke-linecap:round;stroke-linejoin:round;" version="1.1" viewBox="523.325 1216.96 438.4 89.2643" width="100%" xml:space="preserve" xmlns="http://www.w3.org/2000/svg" xmlns:vectornator="http://vectornator.io" xmlns:xlink="http://www.w3.org/1999/xlink">
<defs/>
<clipPath id="ArtboardFrame">
<rect height="89.2643" width="438.4" x="523.325" y="1216.96"/>
</clipPath>
<g clip-path="url(#ArtboardFrame)" id="Layer" vectornator:layerName="Layer">
<g opacity="1" vectornator:layerName="Group 4">
<path d="M523.325 1305.19L530.493 1305.19L530.493 1217.76L523.325 1217.76L523.325 1305.19Z" fill="#131313" fill-rule="nonzero" opacity="1" stroke="none"/>
<path d="M575.037 1291.36L543.677 1217.76L536.381 1217.76L536.381 1305.19L537.917 1305.19L537.917 1221.47L573.757 1305.19C574.781 1305.19 575.805 1305.19 576.701 1305.19L576.701 1217.76L575.037 1217.76L575.037 1291.36Z" fill="#131313" fill-rule="nonzero" opacity="1" stroke="none"/>
<path d="M639.933 1260.77L614.205 1260.77L614.205 1217.76L607.037 1217.76L607.037 1305.19L614.205 1305.19L614.205 1262.43L639.933 1262.43L639.933 1305.19L647.101 1305.19L647.101 1217.76L639.933 1217.76L639.933 1260.77Z" fill="#131313" fill-rule="nonzero" opacity="1" stroke="none"/>
<path d="M651.965 1305.19L659.133 1305.19L659.133 1217.76L651.965 1217.76L651.965 1305.19Z" fill="#131313" fill-rule="nonzero" opacity="1" stroke="none"/>
<path d="M673.853 1229.92C674.237 1224.67 678.205 1219.04 686.909 1218.27C695.485 1218.4 701.629 1221.22 704.701 1230.05L706.109 1229.41C702.013 1216.74 687.677 1215.07 677.309 1218.53C670.653 1220.71 666.813 1225.31 665.789 1231.59C664.509 1244.77 681.405 1260.26 690.109 1270.24C723.389 1306.98 670.397 1316.83 665.917 1285.6L663.997 1286.5C665.917 1294.82 668.605 1298.79 674.621 1303.27C685.245 1308.64 694.845 1306.21 700.733 1299.81C715.709 1281.76 700.093 1267.81 689.469 1255.91C682.429 1248.23 673.213 1238.5 673.853 1229.92Z" fill="#131313" fill-rule="nonzero" opacity="1" stroke="none"/>
<path d="M781.501 1247.71L767.677 1301.86L745.277 1217.76L737.597 1217.76L760.765 1305.19L768.573 1305.19L782.397 1251.04L796.861 1305.19L804.541 1305.19L827.069 1217.89L825.277 1217.89L803.645 1301.86L781.245 1217.76L773.565 1217.76L781.501 1247.71Z" fill="#131313" fill-rule="nonzero" opacity="1" stroke="none"/>
<path d="M840.381 1217.76L841.405 1221.86L820.029 1305.31L821.693 1305.31L830.141 1272.42L853.565 1272.42L861.501 1305.19L868.797 1305.19L847.677 1217.76L840.381 1217.76ZM830.525 1270.75L842.173 1225.06L853.181 1270.75L830.525 1270.75Z" fill="#131313" fill-rule="nonzero" opacity="1" stroke="none"/>
<path d="M921.789 1217.89L920.125 1217.89L880.829 1268.45L880.829 1218.27L873.661 1218.27L873.661 1305.7L880.829 1305.7L880.829 1270.63L887.997 1261.41L916.669 1305.19L923.965 1305.19L891.965 1256.29L921.789 1217.89Z" fill="#131313" fill-rule="nonzero" opacity="1" stroke="none"/>
<path d="M928.829 1217.76L928.829 1305.19L935.997 1305.19L961.725 1305.19L961.725 1303.52L935.997 1303.52L935.997 1262.43L956.221 1262.43L956.221 1260.77L935.997 1260.77L935.997 1219.43L961.725 1219.43L961.725 1217.76L935.997 1217.76L928.829 1217.76Z" fill="#131313" fill-rule="nonzero" opacity="1" stroke="none"/>
</g>
</g>
</svg>
