<?xml version="1.0" encoding="UTF-8" standalone="no"?>
<!DOCTYPE svg PUBLIC "-//W3C//DTD SVG 1.1//EN" "http://www.w3.org/Graphics/SVG/1.1/DTD/svg11.dtd">
<!-- Created with Vectornator (http://vectornator.io/) -->
<svg height="100%" stroke-miterlimit="10" style="fill-rule:nonzero;clip-rule:evenodd;stroke-linecap:round;stroke-linejoin:round;" version="1.1" viewBox="271.735 895.353 536.53 167.295" width="100%" xml:space="preserve" xmlns="http://www.w3.org/2000/svg" xmlns:vectornator="http://vectornator.io" xmlns:xlink="http://www.w3.org/1999/xlink" fill="currentColor">
<defs/>
<clipPath id="ArtboardFrame">
<rect height="167.295" width="536.53" x="271.735" y="895.353"/>
</clipPath>
<g clip-path="url(#ArtboardFrame)" id="Layer" vectornator:layerName="Layer">
<g opacity="1" vectornator:layerName="Group 3">
<path d="M349.697 986.49C349.697 998.401 346.629 1008.57 340.493 1016.99C333.395 1026.97 323.65 1031.97 311.257 1031.97C297.782 1031.97 287.376 1025.47 280.037 1012.48C274.502 1002.73 271.735 992.686 271.735 982.339C271.735 968.985 275.044 957.675 281.661 948.411C289.481 937.343 300.73 931.808 315.408 931.808C333.816 931.808 344.945 939.749 348.795 955.63L342.659 955.63C342.298 950.938 339.831 946.607 335.26 942.636C330.086 938.305 323.83 936.14 316.491 936.14C305.904 936.14 297.391 939.388 290.955 945.885C284.518 952.382 281.3 960.563 281.3 970.428C281.3 979.813 285.33 987.212 293.391 992.626C299.647 996.957 306.204 999.123 313.062 999.123C320.642 999.123 327.319 997.258 333.094 993.528C340.072 989.197 343.561 983.061 343.561 975.121C343.561 971.391 342.358 967.902 339.952 964.653C336.703 960.082 331.771 957.435 325.153 956.713C325.996 958.518 326.417 961.225 326.417 964.834C326.417 975.662 321.484 981.076 311.618 981.076C307.167 981.076 303.618 979.452 300.971 976.203C298.925 973.677 297.903 970.97 297.903 968.082C297.903 957.014 304.941 951.479 319.018 951.479C339.47 951.479 349.697 963.15 349.697 986.49ZM322.446 965.917C322.446 963.39 321.574 961.195 319.83 959.33C318.085 957.465 315.769 956.532 312.882 956.532C309.393 956.532 306.686 957.585 304.761 959.691C302.836 961.796 301.873 964.232 301.873 967C301.873 969.406 302.836 971.421 304.761 973.045C306.686 974.669 309.152 975.482 312.16 975.482C315.047 975.482 317.484 974.639 319.469 972.955C321.454 971.271 322.446 968.925 322.446 965.917Z" fill="#131313" fill-rule="nonzero" opacity="1" stroke="none"/>
<path d="M468.084 982.52C468.084 994.551 464.775 1005.32 458.158 1014.82C450.578 1025.77 440.653 1031.25 428.381 1031.25C425.614 1031.25 422.786 1030.28 419.899 1028.36C419.899 1028.12 420.621 1027.04 422.064 1025.11C425.674 1026.43 427.779 1027.1 428.381 1027.1C435.479 1027.1 440.893 1023.31 444.623 1015.73C447.39 1010.19 448.774 1004.18 448.774 997.679C448.774 983.723 445.886 972.053 440.111 962.668C433.614 952.081 424.531 946.787 412.861 946.787C408.048 946.787 402.815 950.036 397.16 956.532C399.686 956.172 402.093 955.991 404.379 955.991C422.546 955.991 431.629 968.443 431.629 993.348C431.629 1003.81 428.862 1012.6 423.328 1019.7C417.072 1027.88 408.469 1031.97 397.521 1031.97C389.58 1031.97 383.625 1029.26 379.655 1023.85C377.008 1020.24 374.993 1014.82 373.609 1007.6C372.225 1000.39 371.233 996.356 370.631 995.513C368.706 992.867 366.36 991.543 363.593 991.543C361.548 991.543 359.442 992.205 357.277 993.528L355.833 989.919C359.803 987.392 374.06 972.534 398.604 945.343C398.604 943.779 397.611 942.486 395.626 941.463C393.641 940.441 391.926 939.929 390.483 939.929C388.076 939.929 386.212 940.892 384.888 942.817C385.49 944.261 385.79 945.885 385.79 947.69C385.79 951.54 384.617 955.119 382.271 958.427C379.925 961.736 377.248 963.39 374.241 963.39C367.262 963.39 363.773 960.382 363.773 954.367C363.773 947.389 367.804 942.155 375.865 938.666C381.158 936.38 386.452 935.237 391.746 935.237C397.04 935.237 400.89 937.283 403.296 941.373C409.793 937.042 414.214 934.455 416.56 933.613C418.906 932.771 422.967 932.35 428.742 932.35C440.171 932.35 449.586 937.253 456.985 947.058C464.384 956.863 468.084 968.684 468.084 982.52ZM423.147 983.061C423.147 967.902 416.29 960.322 402.574 960.322C397.16 960.322 391.024 963.15 384.166 968.804C381.519 971.09 375.203 977.346 365.217 987.573C369.428 986.971 372.496 988.355 374.421 991.724C377.91 997.98 379.835 1001.35 380.196 1001.83C383.926 1005.56 390.001 1007.42 398.423 1007.42C404.8 1007.42 410.515 1005.08 415.568 1000.39C420.621 995.694 423.147 989.919 423.147 983.061Z" fill="#131313" fill-rule="nonzero" opacity="1" stroke="none"/>
<path d="M577.627 963.571C577.627 982.219 573.056 997.92 563.912 1010.67C553.565 1024.87 539.609 1031.97 522.043 1031.97C508.569 1031.97 497.199 1027.1 487.935 1017.35C477.829 1006.76 473.016 992.806 473.498 975.482C473.738 964.533 476.385 955.51 481.438 948.411C486.852 940.711 493.951 937.102 502.733 937.583C506.824 937.824 508.388 940.531 507.426 945.704C506.944 948.472 506.704 951.058 506.704 953.464C506.704 959.239 508.208 963.691 511.215 966.819C513.862 969.707 517.231 971.15 521.322 971.15C525.653 971.15 529.533 969.707 532.962 966.819C536.391 963.932 538.165 960.142 538.286 955.45C538.526 948.592 536.601 944.682 532.511 943.719C533.834 945.043 534.496 945.945 534.496 946.426C534.496 949.915 533.353 952.713 531.067 954.818C528.781 956.923 526.134 957.976 523.126 957.976C520.118 957.976 517.472 956.923 515.186 954.818C512.9 952.713 511.757 950.156 511.757 947.148C511.757 943.659 512.96 940.922 515.366 938.937C517.772 936.952 520.72 935.959 524.209 935.959C530.345 935.959 535.097 938.245 538.466 942.817C541.474 946.908 542.857 951.961 542.617 957.976C542.256 965.436 539.85 971.15 535.398 975.121C531.548 978.73 526.856 980.535 521.322 980.535C515.908 980.535 511.276 978.67 507.426 974.94C503.215 970.85 501.109 965.616 501.109 959.239C501.109 955.991 501.651 952.622 502.733 949.133C503.696 946.005 503.335 944.14 501.651 943.539C500.448 943.058 499.244 942.817 498.041 942.817C493.83 942.817 490.071 945.253 486.762 950.126C483.454 954.998 481.799 960.503 481.799 966.639C481.799 975.542 485.348 983.181 492.447 989.558C499.545 995.935 507.967 999.123 517.712 999.123C534.315 999.123 547.429 993.889 557.054 983.422C565.596 974.278 569.867 963.39 569.867 950.757C569.867 937.403 565.476 925.673 556.693 915.566C547.309 904.859 535.398 899.565 520.961 899.685C505.2 899.805 492.567 907.566 483.062 922.965L478.551 919.898C489.018 903.415 503.275 895.234 521.322 895.354C538.767 895.474 552.783 902.573 563.371 916.649C572.875 929.522 577.627 945.163 577.627 963.571Z" fill="#131313" fill-rule="nonzero" opacity="1" stroke="none"/>
<path d="M704.316 972.955C705.158 989.919 702.932 1003.81 697.638 1014.64C691.984 1026.19 683.742 1031.97 672.914 1031.97C666.177 1031.97 660.282 1029.32 655.229 1024.03C655.83 1023.19 656.672 1021.92 657.755 1020.24C658.838 1021.8 660.462 1023.09 662.628 1024.12C664.793 1025.14 666.598 1025.65 668.042 1025.65C675.14 1025.65 680.614 1021.26 684.464 1012.48C687.231 1005.98 688.615 999.123 688.615 991.904C688.615 982.279 686.329 972.955 681.757 963.932C675.982 952.622 668.222 946.968 658.477 946.968C653.664 946.968 649.484 948.472 645.934 951.479C642.385 954.487 640.25 958.578 639.528 963.751C642.536 961.946 645.363 961.044 648.01 961.044C653.304 961.044 657.635 964.112 661.003 970.248C664.011 975.662 665.515 981.678 665.515 988.295C665.515 998.762 662.808 1008.27 657.394 1016.81C651.138 1026.91 642.776 1031.97 632.309 1031.97C619.556 1031.97 609.691 1027.28 602.712 1017.89C596.577 1009.71 593.509 999.604 593.509 987.573C593.509 955.811 605.901 940.29 630.685 941.012C627.677 938.847 624.609 937.764 621.481 937.764C610.773 937.884 602.532 942.456 596.757 951.479C591.824 959.3 589.298 969.105 589.177 980.896C589.057 988.956 589.899 996.656 591.704 1004C593.87 1012.54 596.938 1018.91 600.908 1023.12L593.509 1023.12C590.862 1019.64 588.365 1013.53 586.019 1004.81C583.673 996.085 582.56 987.934 582.681 980.354C582.801 967.721 586.29 956.713 593.148 947.329C600.727 937.102 610.473 932.109 622.383 932.35C625.752 932.47 629.061 933.643 632.309 935.869C635.558 938.095 638.084 940.772 639.889 943.9C639.167 944.742 638.144 946.366 636.821 948.772C634.535 946.968 631.587 946.065 627.978 946.065C620.278 946.065 614.202 948.081 609.751 952.111C605.299 956.141 603.073 961.766 603.073 968.985C603.073 978.61 605.901 986.039 611.555 991.272C617.21 996.506 624.79 999.123 634.294 999.123C648.491 999.123 655.589 992.686 655.589 979.813C655.589 971.271 652.521 967 646.386 967C638.806 967 635.016 972.293 635.016 982.881C634.415 982.64 632.79 982.099 630.144 981.256C630.384 968.864 633.693 957.856 640.069 948.231C647.168 937.523 656.071 932.169 666.778 932.169C680.614 932.169 690.901 938.305 697.638 950.577C701.729 957.916 703.955 965.375 704.316 972.955Z" fill="#131313" fill-rule="nonzero" opacity="1" stroke="none"/>
<path d="M699.263 1044.6C699.263 1050.26 697.247 1054.68 693.217 1057.86C689.186 1061.05 684.344 1062.65 678.689 1062.65C673.636 1062.65 669.064 1061.08 664.974 1057.96C660.522 1054.59 658.296 1050.44 658.296 1045.5C658.296 1040.45 659.199 1036.63 661.003 1034.04C662.808 1031.46 665.996 1029.74 670.568 1028.9C670.568 1029.38 670.749 1030.52 671.11 1032.33C665.816 1033.41 663.169 1036 663.169 1040.09C663.169 1047.43 668.824 1051.1 680.133 1051.1C684.103 1051.1 687.472 1050.32 690.239 1048.75C693.728 1046.83 695.473 1044 695.473 1040.27C695.473 1039.91 695.292 1039.43 694.931 1038.83C694.57 1038.22 694.39 1037.8 694.39 1037.56C694.871 1037.32 695.834 1036.96 697.277 1036.48C698.601 1038.65 699.263 1041.35 699.263 1044.6Z" fill="#131313" fill-rule="nonzero" opacity="1" stroke="none"/>
<path d="M808.265 1016.27C805.618 1028.42 799.873 1037.92 791.03 1044.78C782.187 1051.64 772.051 1055.07 760.622 1055.07C743.297 1055.07 730.062 1047.91 720.919 1033.59C714.181 1023 710.632 1010.91 710.271 997.318C709.79 980.474 713.64 966.097 721.821 954.186C731.927 939.629 747.026 932.35 767.118 932.35C780.353 932.35 790.76 937.463 798.339 947.69C804.595 956.111 807.724 965.436 807.724 975.662C807.724 985.407 804.836 994.431 799.061 1002.73C791.963 1012.96 782.639 1018.07 771.089 1018.07C763.75 1018.07 757.554 1015.49 752.501 1010.31C747.688 1005.5 745.282 1000.03 745.282 993.889C745.282 990.52 746.004 986.791 747.447 982.7C749.372 977.286 752.019 973.436 755.388 971.15C753.463 971.15 750.034 971.15 745.101 971.15C740.289 971.271 736.68 971.331 734.273 971.331C735.115 969.285 736.379 965.496 738.063 959.961L789.496 959.961C789.015 961.164 787.872 964.954 786.067 971.331L764.953 971.331C761.584 971.331 758.817 972.955 756.651 976.203C755.087 978.73 754.305 980.956 754.305 982.881C754.305 986.971 756.832 990.581 761.885 993.709C766.096 996.235 769.645 997.499 772.532 997.499C781.556 997.499 788.654 994.31 793.828 987.934C798.279 982.52 800.505 976.203 800.505 968.985C800.505 958.999 797.196 951.058 790.579 945.163C783.962 939.268 775.3 936.32 764.592 936.32C751.839 936.32 741.973 941.794 734.995 952.743C729.581 961.285 726.874 970.368 726.874 979.993C726.874 993.709 730.183 1006.1 736.8 1017.17C745.583 1032.09 758.576 1039.55 775.781 1039.55C790.218 1039.55 799.963 1031.31 805.017 1014.82L808.265 1016.27Z" fill="#131313" fill-rule="nonzero" opacity="1" stroke="none"/>
</g>
</g>
</svg>
