<?xml version="1.0" encoding="UTF-8" standalone="no"?>
<!DOCTYPE svg PUBLIC "-//W3C//DTD SVG 1.1//EN" "http://www.w3.org/Graphics/SVG/1.1/DTD/svg11.dtd">
<!-- Created with Vectornator (http://vectornator.io/) -->
<svg height="100%" stroke-miterlimit="10" style="fill-rule:nonzero;clip-rule:evenodd;stroke-linecap:round;stroke-linejoin:round;" version="1.1" viewBox="474.26 849.805 536.53 167.295" width="100%" xml:space="preserve" xmlns="http://www.w3.org/2000/svg" xmlns:vectornator="http://vectornator.io" xmlns:xlink="http://www.w3.org/1999/xlink">
<defs/>
<clipPath id="ArtboardFrame">
<rect height="167.295" width="536.53" x="474.26" y="849.805"/>
</clipPath>
<g clip-path="url(#ArtboardFrame)" id="Layer" vectornator:layerName="Layer">
<g opacity="1" vectornator:layerName="Group 9">
<path d="M552.222 940.942C552.222 952.853 549.154 963.02 543.018 971.441C535.92 981.427 526.175 986.42 513.783 986.42C500.308 986.42 489.901 979.923 482.562 966.93C477.027 957.185 474.26 947.138 474.26 936.792C474.26 923.437 477.569 912.128 484.186 902.864C492.006 891.795 503.255 886.261 517.933 886.261C536.341 886.261 547.47 894.201 551.32 910.082L545.184 910.082C544.823 905.39 542.357 901.059 537.785 897.089C532.611 892.758 526.355 890.592 519.016 890.592C508.429 890.592 499.917 893.84 493.48 900.337C487.043 906.834 483.825 915.015 483.825 924.881C483.825 934.265 487.855 941.664 495.916 947.078C502.173 951.41 508.73 953.575 515.587 953.575C523.167 953.575 529.844 951.71 535.619 947.981C542.597 943.649 546.086 937.514 546.086 929.573C546.086 925.843 544.883 922.354 542.477 919.106C539.229 914.534 534.296 911.887 527.679 911.165C528.521 912.97 528.942 915.677 528.942 919.286C528.942 930.114 524.009 935.528 514.144 935.528C509.692 935.528 506.143 933.904 503.496 930.656C501.451 928.129 500.428 925.422 500.428 922.535C500.428 911.466 507.466 905.932 521.543 905.932C541.996 905.932 552.222 917.602 552.222 940.942ZM524.972 920.369C524.972 917.843 524.099 915.647 522.355 913.782C520.61 911.917 518.294 910.985 515.407 910.985C511.918 910.985 509.211 912.038 507.286 914.143C505.361 916.248 504.398 918.685 504.398 921.452C504.398 923.858 505.361 925.873 507.286 927.498C509.211 929.122 511.677 929.934 514.685 929.934C517.572 929.934 520.009 929.092 521.994 927.407C523.979 925.723 524.972 923.377 524.972 920.369Z" fill="#ffffff" fill-rule="nonzero" opacity="1" stroke="none"/>
<path d="M670.609 936.972C670.609 949.003 667.3 959.771 660.683 969.276C653.104 980.224 643.178 985.698 630.906 985.698C628.139 985.698 625.312 984.736 622.424 982.811C622.424 982.57 623.146 981.487 624.59 979.562C628.199 980.886 630.305 981.548 630.906 981.548C638.004 981.548 643.418 977.758 647.148 970.178C649.915 964.644 651.299 958.628 651.299 952.131C651.299 938.175 648.411 926.505 642.636 917.121C636.14 906.533 627.056 901.24 615.386 901.24C610.573 901.24 605.34 904.488 599.685 910.985C602.212 910.624 604.618 910.443 606.904 910.443C625.071 910.443 634.154 922.896 634.154 947.8C634.154 958.267 631.387 967.05 625.853 974.148C619.597 982.33 610.994 986.42 600.046 986.42C592.106 986.42 586.15 983.713 582.18 978.299C579.533 974.69 577.518 969.276 576.134 962.057C574.751 954.838 573.758 950.808 573.156 949.966C571.231 947.319 568.885 945.996 566.118 945.996C564.073 945.996 561.967 946.657 559.802 947.981L558.358 944.371C562.328 941.845 576.585 926.986 601.129 899.796C601.129 898.232 600.136 896.938 598.151 895.916C596.166 894.893 594.452 894.382 593.008 894.382C590.602 894.382 588.737 895.344 587.413 897.269C588.015 898.713 588.316 900.337 588.316 902.142C588.316 905.992 587.143 909.571 584.797 912.88C582.451 916.188 579.774 917.843 576.766 917.843C569.788 917.843 566.299 914.835 566.299 908.819C566.299 901.841 570.329 896.608 578.39 893.119C583.684 890.833 588.977 889.69 594.271 889.69C599.565 889.69 603.415 891.735 605.821 895.826C612.318 891.494 616.739 888.908 619.085 888.065C621.432 887.223 625.492 886.802 631.267 886.802C642.697 886.802 652.111 891.705 659.51 901.51C666.909 911.316 670.609 923.136 670.609 936.972ZM625.673 937.514C625.673 922.354 618.815 914.775 605.099 914.775C599.685 914.775 593.549 917.602 586.692 923.257C584.045 925.543 577.728 931.799 567.742 942.025C571.953 941.424 575.021 942.807 576.946 946.176C580.435 952.432 582.36 955.801 582.721 956.282C586.451 960.012 592.527 961.877 600.948 961.877C607.325 961.877 613.04 959.531 618.093 954.838C623.146 950.146 625.673 944.371 625.673 937.514Z" fill="#ffffff" fill-rule="nonzero" opacity="1" stroke="none"/>
<path d="M780.153 918.023C780.153 936.671 775.581 952.372 766.437 965.125C756.09 979.322 742.134 986.42 724.569 986.42C711.094 986.42 699.724 981.548 690.46 971.802C680.354 961.215 675.542 947.259 676.023 929.934C676.264 918.986 678.91 909.962 683.964 902.864C689.378 895.164 696.476 891.554 705.259 892.036C709.349 892.276 710.913 894.983 709.951 900.157C709.47 902.924 709.229 905.511 709.229 907.917C709.229 913.692 710.733 918.143 713.741 921.271C716.388 924.159 719.756 925.603 723.847 925.603C728.178 925.603 732.058 924.159 735.487 921.271C738.916 918.384 740.69 914.594 740.811 909.902C741.051 903.044 739.126 899.134 735.036 898.172C736.359 899.495 737.021 900.397 737.021 900.879C737.021 904.368 735.878 907.165 733.592 909.27C731.306 911.376 728.659 912.429 725.652 912.429C722.644 912.429 719.997 911.376 717.711 909.27C715.425 907.165 714.282 904.608 714.282 901.601C714.282 898.111 715.485 895.374 717.891 893.389C720.298 891.404 723.245 890.412 726.734 890.412C732.87 890.412 737.623 892.697 740.991 897.269C743.999 901.36 745.383 906.413 745.142 912.429C744.781 919.888 742.375 925.603 737.923 929.573C734.073 933.182 729.381 934.987 723.847 934.987C718.433 934.987 713.801 933.122 709.951 929.393C705.74 925.302 703.634 920.068 703.634 913.692C703.634 910.443 704.176 907.075 705.259 903.586C706.221 900.458 705.86 898.593 704.176 897.991C702.973 897.51 701.77 897.269 700.567 897.269C696.356 897.269 692.596 899.706 689.287 904.578C685.979 909.451 684.324 914.955 684.324 921.091C684.324 929.994 687.874 937.634 694.972 944.01C702.07 950.387 710.492 953.575 720.237 953.575C736.84 953.575 749.954 948.342 759.579 937.874C768.122 928.731 772.393 917.843 772.393 905.21C772.393 891.855 768.001 880.125 759.218 870.019C749.834 859.311 737.923 854.017 723.486 854.138C707.725 854.258 695.092 862.018 685.588 877.418L681.076 874.35C691.543 857.867 705.8 849.686 723.847 849.806C741.292 849.927 755.308 857.025 765.896 871.101C775.4 883.975 780.153 899.615 780.153 918.023Z" fill="#ffffff" fill-rule="nonzero" opacity="1" stroke="none"/>
<path d="M906.841 927.407C907.683 944.371 905.457 958.267 900.164 969.095C894.509 980.645 886.268 986.42 875.44 986.42C868.702 986.42 862.807 983.773 857.754 978.48C858.355 977.637 859.197 976.374 860.28 974.69C861.363 976.254 862.987 977.547 865.153 978.57C867.319 979.593 869.123 980.104 870.567 980.104C877.665 980.104 883.14 975.713 886.989 966.93C889.757 960.433 891.14 953.575 891.14 946.356C891.14 936.732 888.854 927.407 884.282 918.384C878.508 907.075 870.747 901.42 861.002 901.42C856.19 901.42 852.009 902.924 848.46 905.932C844.91 908.94 842.775 913.03 842.053 918.204C845.061 916.399 847.888 915.497 850.535 915.497C855.829 915.497 860.16 918.564 863.529 924.7C866.536 930.114 868.04 936.13 868.04 942.747C868.04 953.214 865.333 962.719 859.919 971.261C853.663 981.367 845.301 986.42 834.834 986.42C822.081 986.42 812.216 981.728 805.238 972.344C799.102 964.163 796.034 954.056 796.034 942.025C796.034 910.263 808.426 894.743 833.21 895.465C830.202 893.299 827.134 892.216 824.006 892.216C813.299 892.337 805.057 896.908 799.282 905.932C794.349 913.752 791.823 923.557 791.703 935.348C791.582 943.409 792.424 951.109 794.229 958.448C796.395 966.99 799.463 973.366 803.433 977.577L796.034 977.577C793.387 974.088 790.891 967.982 788.544 959.26C786.198 950.537 785.085 942.386 785.206 934.807C785.326 922.174 788.815 911.165 795.673 901.781C803.253 891.554 812.998 886.562 824.909 886.802C828.277 886.922 831.586 888.096 834.834 890.321C838.083 892.547 840.609 895.224 842.414 898.352C841.692 899.194 840.669 900.818 839.346 903.225C837.06 901.42 834.112 900.518 830.503 900.518C822.803 900.518 816.727 902.533 812.276 906.563C807.824 910.594 805.599 916.218 805.599 923.437C805.599 933.062 808.426 940.491 814.081 945.725C819.735 950.958 827.315 953.575 836.82 953.575C851.016 953.575 858.115 947.138 858.115 934.265C858.115 925.723 855.047 921.452 848.911 921.452C841.331 921.452 837.541 926.746 837.541 937.333C836.94 937.092 835.316 936.551 832.669 935.709C832.909 923.317 836.218 912.308 842.594 902.683C849.693 891.976 858.596 886.622 869.304 886.622C883.14 886.622 893.426 892.758 900.164 905.029C904.254 912.368 906.48 919.828 906.841 927.407Z" fill="#ffffff" fill-rule="nonzero" opacity="1" stroke="none"/>
<path d="M901.788 999.053C901.788 1004.71 899.773 1009.13 895.742 1012.32C891.712 1015.51 886.869 1017.1 881.215 1017.1C876.161 1017.1 871.59 1015.54 867.499 1012.41C863.047 1009.04 860.822 1004.89 860.822 999.955C860.822 994.902 861.724 991.082 863.529 988.496C865.333 985.909 868.522 984.194 873.093 983.352C873.093 983.834 873.274 984.977 873.635 986.781C868.341 987.864 865.694 990.451 865.694 994.541C865.694 1001.88 871.349 1005.55 882.658 1005.55C886.629 1005.55 889.997 1004.77 892.764 1003.2C896.253 1001.28 897.998 998.451 897.998 994.722C897.998 994.361 897.818 993.88 897.457 993.278C897.096 992.676 896.915 992.255 896.915 992.015C897.396 991.774 898.359 991.413 899.803 990.932C901.126 993.098 901.788 995.805 901.788 999.053Z" fill="#ffffff" fill-rule="nonzero" opacity="1" stroke="none"/>
<path d="M1010.79 970.72C1008.14 982.871 1002.4 992.376 993.556 999.233C984.713 1006.09 974.576 1009.52 963.147 1009.52C945.822 1009.52 932.588 1002.36 923.444 988.044C916.706 977.457 913.157 965.366 912.796 951.77C912.315 934.927 916.165 920.55 924.346 908.639C934.452 894.081 949.552 886.802 969.644 886.802C982.878 886.802 993.285 891.915 1000.86 902.142C1007.12 910.564 1010.25 919.888 1010.25 930.114C1010.25 939.86 1007.36 948.883 1001.59 957.185C994.488 967.411 985.164 972.524 973.614 972.524C966.275 972.524 960.079 969.938 955.026 964.764C950.213 959.952 947.807 954.477 947.807 948.342C947.807 944.973 948.529 941.243 949.973 937.153C951.898 931.739 954.544 927.889 957.913 925.603C955.988 925.603 952.559 925.603 947.627 925.603C942.814 925.723 939.205 925.783 936.799 925.783C937.641 923.738 938.904 919.948 940.588 914.414L992.022 914.414C991.54 915.617 990.397 919.407 988.593 925.783L967.478 925.783C964.109 925.783 961.342 927.407 959.176 930.656C957.612 933.182 956.83 935.408 956.83 937.333C956.83 941.424 959.357 945.033 964.41 948.161C968.621 950.688 972.17 951.951 975.058 951.951C984.081 951.951 991.179 948.763 996.353 942.386C1000.8 936.972 1003.03 930.656 1003.03 923.437C1003.03 913.451 999.722 905.511 993.104 899.615C986.487 893.72 977.825 890.772 967.117 890.772C954.364 890.772 944.498 896.247 937.52 907.195C932.106 915.737 929.399 924.821 929.399 934.446C929.399 948.161 932.708 960.553 939.325 971.622C948.108 986.541 961.101 994 978.306 994C992.743 994 1002.49 985.759 1007.54 969.276L1010.79 970.72Z" fill="#ffffff" fill-rule="nonzero" opacity="1" stroke="none"/>
</g>
</g>
</svg>
