<?xml version="1.0" encoding="UTF-8" standalone="no"?>
<!DOCTYPE svg PUBLIC "-//W3C//DTD SVG 1.1//EN" "http://www.w3.org/Graphics/SVG/1.1/DTD/svg11.dtd">
<!-- Created with Vectornator (http://vectornator.io/) -->
<svg height="100%" stroke-miterlimit="10" style="fill-rule:nonzero;clip-rule:evenodd;stroke-linecap:round;stroke-linejoin:round;" version="1.1" viewBox="424.692 441.202 252.753 312.266" width="100%" xml:space="preserve" xmlns="http://www.w3.org/2000/svg" xmlns:vectornator="http://vectornator.io" xmlns:xlink="http://www.w3.org/1999/xlink">
<defs/>
<clipPath id="ArtboardFrame">
<rect height="312.266" width="252.753" x="424.692" y="441.202"/>
</clipPath>
<g clip-path="url(#ArtboardFrame)" id="Layer" vectornator:layerName="Layer">
<g opacity="1" vectornator:layerName="Group 6">
<g opacity="1" vectornator:layerName="Group 5">
<path d="M490.484 668.97L489.332 668.97C488.82 667.178 487.796 665.557 486.26 664.106C484.98 662.912 483.167 661.781 480.82 660.714C478.474 659.648 475.38 659.114 471.54 659.114L460.404 659.114L460.404 739.242C460.404 742.57 460.746 745.13 461.428 746.922C462.111 748.714 462.879 749.994 463.732 750.762C464.671 751.701 465.78 752.213 467.06 752.298L467.06 753.194L448.116 753.194L448.116 752.298C449.396 752.213 450.506 751.701 451.444 750.762C452.298 749.994 453.066 748.714 453.748 746.922C454.431 745.13 454.772 742.57 454.772 739.242L454.772 659.114L443.636 659.114C439.711 659.114 436.596 659.648 434.292 660.714C431.988 661.781 430.196 662.912 428.916 664.106C427.38 665.557 426.356 667.178 425.844 668.97L424.692 668.97L429.172 657.066L486.004 657.066L490.484 668.97Z" fill="#131313" fill-rule="nonzero" opacity="1" stroke="none"/>
<path d="M520.564 695.338C523.978 695.168 526.943 695.85 529.46 697.386C531.978 698.922 534.196 701.013 536.116 703.658C538.036 706.304 539.764 709.354 541.3 712.81C542.836 716.266 544.287 719.786 545.652 723.37C547.018 726.954 548.362 730.496 549.684 733.994C551.007 737.493 552.458 740.586 554.036 743.274C555.615 745.962 557.407 748.096 559.412 749.674C561.418 751.253 563.743 752 566.388 751.914L566.388 753.322C562.378 753.749 558.943 753.237 556.084 751.786C553.226 750.336 550.772 748.309 548.724 745.706C546.676 743.104 544.927 740.096 543.476 736.682C542.026 733.269 540.703 729.749 539.508 726.122C538.314 722.496 537.162 718.933 536.052 715.434C534.943 711.936 533.663 708.821 532.212 706.09C530.762 703.36 529.076 701.184 527.156 699.562C525.236 697.941 522.868 697.216 520.052 697.386C518.943 701.312 517.876 705.045 516.852 708.586C515.828 712.128 514.591 715.306 513.14 718.122C512.372 719.829 511.54 721.28 510.644 722.474C509.748 723.669 508.831 724.736 507.892 725.674C507.21 726.186 506.548 726.656 505.908 727.082C505.268 727.509 504.564 727.808 503.796 727.978L503.796 739.242C503.796 742.656 504.138 745.237 504.82 746.986C505.503 748.736 506.271 750.037 507.124 750.89C508.063 751.829 509.215 752.341 510.58 752.426L510.58 753.322L491.508 753.322L491.508 752.426C492.788 752.341 493.898 751.829 494.836 750.89C495.69 750.037 496.458 748.736 497.14 746.986C497.823 745.237 498.164 742.656 498.164 739.242L498.164 671.146C498.164 667.818 497.823 665.258 497.14 663.466C496.458 661.674 495.69 660.352 494.836 659.498C493.898 658.56 492.788 658.048 491.508 657.962L491.508 657.066L510.58 657.066L510.58 657.962C509.215 658.048 508.063 658.56 507.124 659.498C506.271 660.352 505.503 661.674 504.82 663.466C504.138 665.258 503.796 667.818 503.796 671.146L503.796 725.802C505.674 725.034 507.316 723.669 508.724 721.706C510.132 719.744 511.412 717.376 512.564 714.602C513.716 711.829 514.762 708.757 515.7 705.386C516.639 702.016 517.578 698.538 518.516 694.954C519.882 689.92 521.29 684.949 522.74 680.042C524.191 675.136 526.026 670.677 528.244 666.666C533.194 657.45 539.679 652.842 547.7 652.842C549.834 652.842 551.882 653.269 553.844 654.122C555.807 654.976 557.492 656.106 558.9 657.514C560.308 658.922 561.439 660.608 562.292 662.57C563.146 664.533 563.572 666.581 563.572 668.714C563.572 672.725 562.292 676.202 559.732 679.146C557.172 682.09 553.972 683.861 550.132 684.458C548.511 684.629 547.21 685.098 546.228 685.866C545.247 686.634 544.586 687.829 544.244 689.45L543.348 689.45L543.22 679.082L544.116 679.082C544.287 680.704 544.927 681.749 546.036 682.218C547.146 682.688 548.511 682.752 550.132 682.41C553.375 681.813 556.084 680.234 558.26 677.674C560.436 675.114 561.524 672.128 561.524 668.714C561.524 666.837 561.162 665.066 560.436 663.402C559.711 661.738 558.708 660.266 557.428 658.986C556.148 657.706 554.676 656.704 553.012 655.978C551.348 655.253 549.578 654.89 547.7 654.89C540.532 654.89 534.644 659.157 530.036 667.69C527.988 671.53 526.218 675.861 524.724 680.682C523.231 685.504 521.844 690.389 520.564 695.338Z" fill="#131313" fill-rule="nonzero" opacity="1" stroke="none"/>
<path d="M581.364 739.242C581.364 742.57 581.706 745.13 582.388 746.922C583.071 748.714 583.839 749.994 584.692 750.762C585.631 751.701 586.74 752.213 588.02 752.298L588.02 753.194L568.948 753.194L568.948 752.298C570.228 752.213 571.338 751.701 572.276 750.762C573.13 749.994 573.919 748.714 574.644 746.922C575.37 745.13 575.732 742.57 575.732 739.242L575.732 671.146C575.732 667.818 575.37 665.258 574.644 663.466C573.919 661.674 573.13 660.352 572.276 659.498C571.338 658.56 570.228 658.048 568.948 657.962L568.948 657.066L588.02 657.066L588.02 657.962C586.74 658.048 585.631 658.56 584.692 659.498C583.839 660.352 583.071 661.674 582.388 663.466C581.706 665.258 581.364 667.818 581.364 671.146L581.364 739.242Z" fill="#131313" fill-rule="nonzero" opacity="1" stroke="none"/>
<path d="M675.188 726.442C676.127 726.442 676.788 726.848 677.172 727.658C677.556 728.469 677.535 729.258 677.108 730.026C675.146 733.269 672.756 736.341 669.94 739.242C665.332 743.85 660.106 747.349 654.26 749.738C648.415 752.128 642.25 753.322 635.764 753.322C629.364 753.322 623.242 752.128 617.396 749.738C611.551 747.349 606.324 743.85 601.716 739.242C597.108 734.634 593.61 729.408 591.22 723.562C588.831 717.717 587.636 711.594 587.636 705.194C587.636 698.709 588.831 692.565 591.22 686.762C593.61 680.96 597.108 675.754 601.716 671.146C606.324 666.538 611.551 663.018 617.396 660.586C623.242 658.154 629.364 656.938 635.764 656.938C641.226 656.938 646.452 657.813 651.444 659.562C656.436 661.312 661.023 663.808 665.204 667.05C665.716 667.392 666.015 667.605 666.1 667.69C667.21 668.544 668.042 668.928 668.596 668.842C669.151 668.757 669.535 668.394 669.748 667.754C669.962 667.114 670.026 666.304 669.94 665.322C669.855 664.341 669.77 663.381 669.684 662.442L670.964 662.442L674.932 687.658L673.78 687.658C673.268 685.184 672.607 682.986 671.796 681.066C670.986 679.146 670.196 677.589 669.428 676.394C665.759 671.018 660.959 666.773 655.028 663.658C649.098 660.544 642.676 658.986 635.764 658.986C629.876 658.986 624.372 660.096 619.252 662.314C614.132 664.533 609.674 667.669 605.876 671.722C602.079 675.776 599.092 680.64 596.916 686.314C594.74 691.989 593.652 698.282 593.652 705.194C593.652 712.106 594.74 718.378 596.916 724.01C599.092 729.642 602.079 734.485 605.876 738.538C609.674 742.592 614.132 745.728 619.252 747.946C624.372 750.165 629.876 751.274 635.764 751.274C643.956 751.274 651.316 749.205 657.844 745.066C664.372 740.928 669.428 735.189 673.012 727.85C673.439 726.912 674.164 726.442 675.188 726.442Z" fill="#131313" fill-rule="nonzero" opacity="1" stroke="none"/>
</g>
<path d="M552.315 605.735L552.315 554.396L486.366 483.169L481.157 531.521L446.579 509.022L477.504 619.088" fill="none" opacity="1" stroke="#131313" stroke-linecap="butt" stroke-linejoin="miter" stroke-width="2.5" vectornator:layerName="path"/>
<path d="M552.431 605.735L552.431 554.396L618.38 483.169L623.589 531.521L658.166 509.022L627.242 619.088" fill="none" opacity="1" stroke="#131313" stroke-linecap="butt" stroke-linejoin="miter" stroke-width="2.5" vectornator:layerName="path"/>
<path d="M627.463 619.088C627.463 626.463 593.969 632.441 552.653 632.441C511.335 632.441 477.841 626.463 477.841 619.088C477.841 611.713 511.335 605.735 552.653 605.735C593.969 605.735 627.463 611.713 627.463 619.088Z" fill="none" opacity="1" stroke="#131313" stroke-linecap="butt" stroke-linejoin="miter" stroke-width="2.5" vectornator:layerName="path"/>
<path d="M476.19 610.6C480.65 606.675 485.471 605.522 498.65 603.17C513.132 600.585 532.311 599.161 552.653 599.161C572.992 599.161 592.172 600.585 606.654 603.17C619.776 605.511 625.074 607.31 628.998 611.329" fill="none" opacity="1" stroke="#131313" stroke-linecap="butt" stroke-linejoin="miter" stroke-width="2.5" vectornator:layerName="path"/>
<path d="M480.648 622.419C489.52 616.811 518.397 612.701 552.652 612.701C587.213 612.701 616.3 616.885 624.887 622.569" fill="none" opacity="1" stroke="#131313" stroke-linecap="butt" stroke-linejoin="miter" stroke-width="2.5" vectornator:layerName="path"/>
<path d="M523.91 522.941L552.373 444.852L580.837 522.941" fill="none" opacity="1" stroke="#131313" stroke-linecap="butt" stroke-linejoin="miter" stroke-width="2.5" vectornator:layerName="path"/>
<path d="M486.366 483.17L521.703 599.828" fill="none" opacity="1" stroke="#131313" stroke-linecap="butt" stroke-linejoin="miter" stroke-width="2.5" vectornator:layerName="path"/>
<path d="M446.579 509.022L488.077 605.246" fill="none" opacity="1" stroke="#131313" stroke-linecap="butt" stroke-linejoin="miter" stroke-width="2.5" vectornator:layerName="path"/>
<path d="M618.38 483.17L583.043 599.828" fill="none" opacity="1" stroke="#131313" stroke-linecap="butt" stroke-linejoin="miter" stroke-width="2.5" vectornator:layerName="path"/>
<path d="M658.166 509.022L616.669 605.246" fill="none" opacity="1" stroke="#131313" stroke-linecap="butt" stroke-linejoin="miter" stroke-width="2.5" vectornator:layerName="path"/>
<path d="M552.372 444.852L552.372 553.089" fill="none" opacity="1" stroke="#131313" stroke-linecap="butt" stroke-linejoin="miter" stroke-width="2.5" vectornator:layerName="path"/>
<path d="M528.293 510.915L552.483 535.69L576.35 511.248L580.837 523.718L552.432 554.396L523.91 523.718L528.293 510.915Z" fill="#000000" fill-opacity="0" fill-rule="nonzero" opacity="1" stroke="#131313" stroke-linecap="butt" stroke-linejoin="miter" stroke-width="2.5" vectornator:layerName="path"/>
</g>
</g>
</svg>
