<?xml version="1.0" encoding="UTF-8" standalone="no"?>
<!DOCTYPE svg PUBLIC "-//W3C//DTD SVG 1.1//EN" "http://www.w3.org/Graphics/SVG/1.1/DTD/svg11.dtd">
<!-- Created with Vectornator (http://vectornator.io/) -->
<svg height="100%" stroke-miterlimit="10" style="fill-rule:nonzero;clip-rule:evenodd;stroke-linecap:round;stroke-linejoin:round;" version="1.1" viewBox="99.9419 775.494 252.753 312.266" width="100%" xml:space="preserve" xmlns="http://www.w3.org/2000/svg" xmlns:vectornator="http://vectornator.io" xmlns:xlink="http://www.w3.org/1999/xlink">
<defs/>
<clipPath id="ArtboardFrame">
<rect height="312.266" width="252.753" x="99.9419" y="775.494"/>
</clipPath>
<g clip-path="url(#ArtboardFrame)" id="Layer" vectornator:layerName="Layer">
<g opacity="1" vectornator:layerName="Group 10">
<g opacity="1" vectornator:layerName="Group 1">
<path d="M165.734 1003.26L164.582 1003.26C164.07 1001.47 163.046 999.849 161.51 998.399C160.23 997.204 158.417 996.073 156.07 995.007C153.723 993.94 150.63 993.407 146.79 993.407L135.654 993.407L135.654 1073.53C135.654 1076.86 135.995 1079.42 136.678 1081.21C137.361 1083.01 138.129 1084.29 138.982 1085.05C139.921 1085.99 141.03 1086.51 142.31 1086.59L142.31 1087.49L123.366 1087.49L123.366 1086.59C124.646 1086.51 125.755 1085.99 126.694 1085.05C127.547 1084.29 128.315 1083.01 128.998 1081.21C129.681 1079.42 130.022 1076.86 130.022 1073.53L130.022 993.407L118.886 993.407C114.961 993.407 111.846 993.94 109.542 995.007C107.238 996.073 105.446 997.204 104.166 998.399C102.63 999.849 101.606 1001.47 101.094 1003.26L99.9419 1003.26L104.422 991.359L161.254 991.359L165.734 1003.26Z" fill="#ffffff" fill-rule="nonzero" opacity="1" stroke="none"/>
<path d="M195.814 1029.63C199.227 1029.46 202.193 1030.14 204.71 1031.68C207.227 1033.21 209.446 1035.31 211.366 1037.95C213.286 1040.6 215.014 1043.65 216.55 1047.1C218.086 1050.56 219.537 1054.08 220.902 1057.66C222.267 1061.25 223.611 1064.79 224.934 1068.29C226.257 1071.79 227.707 1074.88 229.286 1077.57C230.865 1080.25 232.657 1082.39 234.662 1083.97C236.667 1085.55 238.993 1086.29 241.638 1086.21L241.638 1087.61C237.627 1088.04 234.193 1087.53 231.334 1086.08C228.475 1084.63 226.022 1082.6 223.974 1080C221.926 1077.4 220.177 1074.39 218.726 1070.97C217.275 1067.56 215.953 1064.04 214.758 1060.41C213.563 1056.79 212.411 1053.23 211.302 1049.73C210.193 1046.23 208.913 1043.11 207.462 1040.38C206.011 1037.65 204.326 1035.48 202.406 1033.85C200.486 1032.23 198.118 1031.51 195.302 1031.68C194.193 1035.6 193.126 1039.34 192.102 1042.88C191.078 1046.42 189.841 1049.6 188.39 1052.41C187.622 1054.12 186.79 1055.57 185.894 1056.77C184.998 1057.96 184.081 1059.03 183.142 1059.97C182.459 1060.48 181.798 1060.95 181.158 1061.37C180.518 1061.8 179.814 1062.1 179.046 1062.27L179.046 1073.53C179.046 1076.95 179.387 1079.53 180.07 1081.28C180.753 1083.03 181.521 1084.33 182.374 1085.18C183.313 1086.12 184.465 1086.63 185.83 1086.72L185.83 1087.61L166.758 1087.61L166.758 1086.72C168.038 1086.63 169.147 1086.12 170.086 1085.18C170.939 1084.33 171.707 1083.03 172.39 1081.28C173.073 1079.53 173.414 1076.95 173.414 1073.53L173.414 1005.44C173.414 1002.11 173.073 999.551 172.39 997.759C171.707 995.967 170.939 994.644 170.086 993.791C169.147 992.852 168.038 992.34 166.758 992.255L166.758 991.359L185.83 991.359L185.83 992.255C184.465 992.34 183.313 992.852 182.374 993.791C181.521 994.644 180.753 995.967 180.07 997.759C179.387 999.551 179.046 1002.11 179.046 1005.44L179.046 1060.09C180.923 1059.33 182.566 1057.96 183.974 1056C185.382 1054.04 186.662 1051.67 187.814 1048.89C188.966 1046.12 190.011 1043.05 190.95 1039.68C191.889 1036.31 192.827 1032.83 193.766 1029.25C195.131 1024.21 196.539 1019.24 197.99 1014.33C199.441 1009.43 201.275 1004.97 203.494 1000.96C208.443 991.743 214.929 987.135 222.95 987.135C225.083 987.135 227.131 987.561 229.094 988.415C231.057 989.268 232.742 990.399 234.15 991.807C235.558 993.215 236.689 994.9 237.542 996.863C238.395 998.825 238.822 1000.87 238.822 1003.01C238.822 1007.02 237.542 1010.49 234.982 1013.44C232.422 1016.38 229.222 1018.15 225.382 1018.75C223.761 1018.92 222.459 1019.39 221.478 1020.16C220.497 1020.93 219.835 1022.12 219.494 1023.74L218.598 1023.74L218.47 1013.37L219.366 1013.37C219.537 1015 220.177 1016.04 221.286 1016.51C222.395 1016.98 223.761 1017.04 225.382 1016.7C228.625 1016.11 231.334 1014.53 233.51 1011.97C235.686 1009.41 236.774 1006.42 236.774 1003.01C236.774 1001.13 236.411 999.359 235.686 997.695C234.961 996.031 233.958 994.559 232.678 993.279C231.398 991.999 229.926 990.996 228.262 990.271C226.598 989.545 224.827 989.183 222.95 989.183C215.782 989.183 209.894 993.449 205.286 1001.98C203.238 1005.82 201.467 1010.15 199.974 1014.97C198.481 1019.8 197.094 1024.68 195.814 1029.63Z" fill="#ffffff" fill-rule="nonzero" opacity="1" stroke="none"/>
<path d="M256.614 1073.53C256.614 1076.86 256.955 1079.42 257.638 1081.21C258.321 1083.01 259.089 1084.29 259.942 1085.05C260.881 1085.99 261.99 1086.51 263.27 1086.59L263.27 1087.49L244.198 1087.49L244.198 1086.59C245.478 1086.51 246.587 1085.99 247.526 1085.05C248.379 1084.29 249.169 1083.01 249.894 1081.21C250.619 1079.42 250.982 1076.86 250.982 1073.53L250.982 1005.44C250.982 1002.11 250.619 999.551 249.894 997.759C249.169 995.967 248.379 994.644 247.526 993.791C246.587 992.852 245.478 992.34 244.198 992.255L244.198 991.359L263.27 991.359L263.27 992.255C261.99 992.34 260.881 992.852 259.942 993.791C259.089 994.644 258.321 995.967 257.638 997.759C256.955 999.551 256.614 1002.11 256.614 1005.44L256.614 1073.53Z" fill="#ffffff" fill-rule="nonzero" opacity="1" stroke="none"/>
<path d="M350.438 1060.73C351.377 1060.73 352.038 1061.14 352.422 1061.95C352.806 1062.76 352.785 1063.55 352.358 1064.32C350.395 1067.56 348.006 1070.63 345.19 1073.53C340.582 1078.14 335.355 1081.64 329.51 1084.03C323.665 1086.42 317.499 1087.61 311.014 1087.61C304.614 1087.61 298.491 1086.42 292.646 1084.03C286.801 1081.64 281.574 1078.14 276.966 1073.53C272.358 1068.93 268.859 1063.7 266.47 1057.85C264.081 1052.01 262.886 1045.89 262.886 1039.49C262.886 1033 264.081 1026.86 266.47 1021.05C268.859 1015.25 272.358 1010.05 276.966 1005.44C281.574 1000.83 286.801 997.311 292.646 994.879C298.491 992.447 304.614 991.231 311.014 991.231C316.475 991.231 321.702 992.105 326.694 993.855C331.686 995.604 336.273 998.1 340.454 1001.34C340.966 1001.68 341.265 1001.9 341.35 1001.98C342.459 1002.84 343.291 1003.22 343.846 1003.13C344.401 1003.05 344.785 1002.69 344.998 1002.05C345.211 1001.41 345.275 1000.6 345.19 999.615C345.105 998.633 345.019 997.673 344.934 996.735L346.214 996.735L350.182 1021.95L349.03 1021.95C348.518 1019.48 347.857 1017.28 347.046 1015.36C346.235 1013.44 345.446 1011.88 344.678 1010.69C341.009 1005.31 336.209 1001.07 330.278 997.951C324.347 994.836 317.926 993.279 311.014 993.279C305.126 993.279 299.622 994.388 294.502 996.607C289.382 998.825 284.923 1001.96 281.126 1006.01C277.329 1010.07 274.342 1014.93 272.166 1020.61C269.99 1026.28 268.902 1032.57 268.902 1039.49C268.902 1046.4 269.99 1052.67 272.166 1058.3C274.342 1063.93 277.329 1068.78 281.126 1072.83C284.923 1076.88 289.382 1080.02 294.502 1082.24C299.622 1084.46 305.126 1085.57 311.014 1085.57C319.206 1085.57 326.566 1083.5 333.094 1079.36C339.622 1075.22 344.678 1069.48 348.262 1062.14C348.689 1061.2 349.414 1060.73 350.438 1060.73Z" fill="#ffffff" fill-rule="nonzero" opacity="1" stroke="none"/>
<path d="M227.564 940.027L227.564 888.689L161.616 817.462L156.406 865.813L121.829 843.315L152.754 953.38" fill="none" opacity="1" stroke="#ffffff" stroke-linecap="butt" stroke-linejoin="miter" stroke-width="2.5" vectornator:layerName="path"/>
<path d="M227.681 940.027L227.681 888.689L293.629 817.462L298.839 865.813L333.415 843.315L302.491 953.38" fill="none" opacity="1" stroke="#ffffff" stroke-linecap="butt" stroke-linejoin="miter" stroke-width="2.5" vectornator:layerName="path"/>
<path d="M302.712 953.381C302.712 960.755 269.218 966.734 227.902 966.734C186.585 966.734 153.09 960.755 153.09 953.381C153.09 946.006 186.585 940.028 227.902 940.028C269.218 940.028 302.712 946.006 302.712 953.381Z" fill="none" opacity="1" stroke="#ffffff" stroke-linecap="butt" stroke-linejoin="miter" stroke-width="2.5" vectornator:layerName="path"/>
<path d="M151.44 944.892C155.899 940.968 160.72 939.815 173.899 937.462C188.382 934.878 207.56 933.454 227.902 933.454C248.241 933.454 267.421 934.878 281.903 937.462C295.025 939.804 300.323 941.603 304.248 945.622" fill="none" opacity="1" stroke="#ffffff" stroke-linecap="butt" stroke-linejoin="miter" stroke-width="2.5" vectornator:layerName="path"/>
<path d="M155.898 956.711C164.77 951.104 193.646 946.994 227.902 946.994C262.463 946.994 291.549 951.177 300.137 956.861" fill="none" opacity="1" stroke="#ffffff" stroke-linecap="butt" stroke-linejoin="miter" stroke-width="2.5" vectornator:layerName="path"/>
<path d="M199.159 857.233L227.622 779.144L256.086 857.233" fill="none" opacity="1" stroke="#ffffff" stroke-linecap="butt" stroke-linejoin="miter" stroke-width="2.5" vectornator:layerName="path"/>
<path d="M161.616 817.462L196.952 934.12" fill="none" opacity="1" stroke="#ffffff" stroke-linecap="butt" stroke-linejoin="miter" stroke-width="2.5" vectornator:layerName="path"/>
<path d="M121.828 843.315L163.327 939.539" fill="none" opacity="1" stroke="#ffffff" stroke-linecap="butt" stroke-linejoin="miter" stroke-width="2.5" vectornator:layerName="path"/>
<path d="M293.629 817.462L258.293 934.12" fill="none" opacity="1" stroke="#ffffff" stroke-linecap="butt" stroke-linejoin="miter" stroke-width="2.5" vectornator:layerName="path"/>
<path d="M333.416 843.315L291.918 939.539" fill="none" opacity="1" stroke="#ffffff" stroke-linecap="butt" stroke-linejoin="miter" stroke-width="2.5" vectornator:layerName="path"/>
<path d="M227.622 779.145L227.622 887.382" fill="none" opacity="1" stroke="#ffffff" stroke-linecap="butt" stroke-linejoin="miter" stroke-width="2.5" vectornator:layerName="path"/>
<path d="M203.542 845.208L227.733 869.982L251.6 845.54L256.086 858.011L227.681 888.689L199.159 858.011L203.542 845.208Z" fill="#000000" fill-opacity="0" fill-rule="nonzero" opacity="1" stroke="#ffffff" stroke-linecap="butt" stroke-linejoin="miter" stroke-width="2.5" vectornator:layerName="path"/>
</g>
</g>
</g>
</svg>
